<svg xmlns="http://www.w3.org/2000/svg" viewBox="0 0 124.9 111.62"><g data-name="Слой 2"><path d="M121.87 26.81a38 38 0 0 0-9.08-13.53A45.7 45.7 0 0 0 97 3.66Q87.41 0 74.22 0a79.19 79.19 0 0 0-31 5.86 72.35 72.35 0 0 0-23.4 15.33A67.35 67.35 0 0 0 5 43.07a66.08 66.08 0 0 0-5 25.58 43.1 43.1 0 0 0 3.22 16.8 38.26 38.26 0 0 0 9.48 13.48 46.07 46.07 0 0 0 15.82 9.22 65 65 0 0 0 22.16 3.47 80 80 0 0 0 28.66-5 75.68 75.68 0 0 0 23.59-14.21 66.61 66.61 0 0 0 16-21.68 63.8 63.8 0 0 0 6-27.44 44.33 44.33 0 0 0-3.06-16.48zM28 55.09C23.26 71.05 17.07 83 14.17 81.68s-1.41-15.25 3.33-31.22 10.94-27.87 13.84-26.59 1.4 15.25-3.34 31.22zm59.06 2.67a105 105 0 0 1-7.47 22.64 51.47 51.47 0 0 1-11.92 16.87q-7 6.35-15.23 6.34a15.59 15.59 0 0 1-8-2 14.84 14.84 0 0 1-5.27-5.17 24.55 24.55 0 0 1-3-7.41 47.46 47.46 0 0 1-.88-10 122.35 122.35 0 0 1 2.45-24.1 98.08 98.08 0 0 1 7.18-22.43q6-12.69 12.89-18.49T72.56 8.2a15.09 15.09 0 0 1 7.81 1.91 15.36 15.36 0 0 1 5.27 5.12 22.61 22.61 0 0 1 3.08 7.41 44.06 44.06 0 0 1 .93 9.66 122.67 122.67 0 0 1-2.59 25.46zm21.19-2.67c-4.74 16-10.93 27.87-13.83 26.59S93 66.43 97.75 50.46s10.94-27.87 13.84-26.59 1.41 15.25-3.34 31.22z" data-name="Слой 1"/></g></svg>