<svg class="icon333" xmlns="http://www.w3.org/2000/svg" viewBox="0 0 49.71 50.29" width="40" height="40"><g data-name="Слой 2"><g data-name="Слой 1"><path d="M25.53 45c-.06.26-.11.51-.15.74a3.61 3.61 0 0 0-.06.54 1.65 1.65 0 0 0 .87 1.55 9.49 9.49 0 0 0 3.3.75l-.39 1.71h-18l.4-1.71c.39 0 1-.07 1.75-.18a9.52 9.52 0 0 0 1.75-.34 2.8 2.8 0 0 0 1.39-.91 3.5 3.5 0 0 0 .61-1.43l5.38-23.25c.07-.33.13-.6.16-.82a4.21 4.21 0 0 0 .05-.49 1.69 1.69 0 0 0-1-1.54 10.33 10.33 0 0 0-3.24-.88l.43-1.74h18.33q5.72 0 8.58 1.62a5.26 5.26 0 0 1 2.87 4.9A8.5 8.5 0 0 1 45.78 30a17.17 17.17 0 0 1-7.88 3.83q1 1.76 2.43 4.37c1 1.75 2.11 3.75 3.41 6a23.86 23.86 0 0 0 1.46 2.29 4.18 4.18 0 0 0 1.91 1.63 7.94 7.94 0 0 0 1.36.28c.58.08 1 .12 1.24.14l-.42 1.71H37.16q-2.2-5-3.76-8.07t-3.9-7h-1.68zm13.75-21a4.44 4.44 0 0 0-1.58-3.75 7.33 7.33 0 0 0-4.58-1.23h-1.59l-3.25 14.19h2.27a8.62 8.62 0 0 0 6.28-2.41 9.06 9.06 0 0 0 2.45-6.8z"/><path d="M14.86 35.09a18.11 18.11 0 0 1-5.95-1 13.89 13.89 0 0 1-4.74-2.69 12.48 12.48 0 0 1-3.07-4.35A14.72 14.72 0 0 1 0 21.24a21 21 0 0 1 1.58-8.1 21.84 21.84 0 0 1 4.47-6.78 20.72 20.72 0 0 1 6.76-4.61A20.85 20.85 0 0 1 21.3 0a23.32 23.32 0 0 1 5.51.67A14.54 14.54 0 0 1 31 2.2L32.74.91h2l-2.6 12.14h-2.02Q29.64 7.74 27.29 5a7.59 7.59 0 0 0-6.06-2.78 8.51 8.51 0 0 0-5 1.62 13.9 13.9 0 0 0-4.08 5 24.22 24.22 0 0 0-2.21 6.42A33.39 33.39 0 0 0 9.16 22q0 4.69 2.28 7.3a7.68 7.68 0 0 0 6.09 2.6 11.07 11.07 0 0 0 6.21-1.87 22.46 22.46 0 0 0 5.51-5.42l1.8 1.22a24.6 24.6 0 0 1-2.74 3.51 17.49 17.49 0 0 1-3.63 3 18.91 18.91 0 0 1-4.39 2 18.39 18.39 0 0 1-5.43.75z"/></g></g></svg>